<?xml version="1.0"?><svg data-name="Livello 1" id="Livello_1" viewBox="0 0 71.33 72.67" xmlns="http://www.w3.org/2000/svg"><defs><style>.cls-1{fill:#e4accc;stroke:#e4accc;}.cls-1,.cls-2,.cls-5,.cls-6{stroke-miterlimit:10;}.cls-2,.cls-3{fill:#bf3582;}.cls-2,.cls-6{stroke:#bf3582;}.cls-4{fill:#fff;}.cls-5,.cls-6{fill:none;}.cls-5{stroke:#fff;}</style></defs><title/><path class="cls-1" d="M64.88,7.92A8,8,0,0,1,65.17,10V57c0,4.42-3.42,8.5-7.83,8.5h-47a8,8,0,0,1-3.72-.92,8,8,0,0,0,7.72,5.92h47c4.42,0,7.83-4.08,7.83-8.5V15A8,8,0,0,0,64.88,7.92Z"/><rect class="cls-2" height="63" rx="8" ry="8" width="63" x="2.33" y="2"/><path class="cls-3" d="M42.88,21.61a2.73,2.73,0,1,0,.8-1.92A2.62,2.62,0,0,0,42.88,21.61Zm-1.15,3.87a11.23,11.23,0,0,0-8.25-3.4A11.61,11.61,0,0,0,21.84,33.73,11.61,11.61,0,0,0,33.48,45.37,11.61,11.61,0,0,0,45.13,33.73,11.23,11.23,0,0,0,41.73,25.48ZM53.19,28q0,1.13,0,3.3c0,1.44,0,2.24,0,2.39s0,0.94,0,2.39,0,2.54,0,3.29-0.05,1.76-.1,3a23.93,23.93,0,0,1-.31,3.22,12.74,12.74,0,0,1-.58,2.23,8.21,8.21,0,0,1-4.56,4.57A12.71,12.71,0,0,1,45.4,53a25.12,25.12,0,0,1-3.21.32c-1.26,0-2.27.08-3,.09h-3.3l-2.39,0-2.39,0H27.8c-0.75,0-1.76,0-3-.09A25.49,25.49,0,0,1,21.56,53a12.81,12.81,0,0,1-2.23-.57,8.05,8.05,0,0,1-2.75-1.82,8.2,8.2,0,0,1-1.82-2.75,12.81,12.81,0,0,1-.57-2.23,25.49,25.49,0,0,1-.32-3.22c-0.05-1.26-.08-2.27-0.09-3s0-1.84,0-3.29,0-2.25,0-2.39,0-.95,0-2.39,0-2.55,0-3.3,0-1.76.09-3a25.12,25.12,0,0,1,.32-3.21,12.71,12.71,0,0,1,.57-2.24,8.2,8.2,0,0,1,1.82-2.75A8,8,0,0,1,19.33,15a12.74,12.74,0,0,1,2.23-.58,23.93,23.93,0,0,1,3.22-.31c1.26,0,2.27-.09,3-0.1h3.29l2.39,0,2.39,0h3.3c0.75,0,1.76.05,3,.1a23.6,23.6,0,0,1,3.21.31,12.64,12.64,0,0,1,2.24.58,8.15,8.15,0,0,1,4.56,4.56,12.64,12.64,0,0,1,.58,2.24A23.6,23.6,0,0,1,53.09,25C53.14,26.28,53.18,27.29,53.19,28Z"/><path class="cls-4" d="M57.33,23.82c0.1,1.83.15,5.14,0.15,9.91s0,8.07-.15,9.9Q57,50.14,53.45,53.7T43.39,57.57c-1.83.1-5.14,0.16-9.91,0.16s-8.07-.06-9.9-0.16q-6.51-.32-10.07-3.87T9.64,43.63c-0.1-1.83-.16-5.13-0.16-9.9s0.06-8.08.16-9.91q0.31-6.5,3.87-10.06T23.58,9.88q2.74-.15,9.9-0.15c4.77,0,8.08,0,9.91.15q6.5,0.31,10.06,3.88T57.33,23.82Zm-4.14,7.52q0-2.18,0-3.3c0-.75-0.05-1.76-0.1-3a23.6,23.6,0,0,0-.31-3.21,12.64,12.64,0,0,0-.58-2.24A8.15,8.15,0,0,0,47.64,15a12.64,12.64,0,0,0-2.24-.58,23.6,23.6,0,0,0-3.21-.31c-1.26,0-2.27-.09-3-0.1h-3.3l-2.39,0-2.39,0H27.8c-0.75,0-1.76.05-3,.1a23.93,23.93,0,0,0-3.22.31,12.74,12.74,0,0,0-2.23.58,8,8,0,0,0-2.75,1.81,8.2,8.2,0,0,0-1.82,2.75,12.71,12.71,0,0,0-.57,2.24A25.12,25.12,0,0,0,13.87,25c-0.05,1.26-.08,2.27-0.09,3s0,1.85,0,3.3,0,2.24,0,2.39,0,0.94,0,2.39,0,2.54,0,3.29,0,1.76.09,3a25.49,25.49,0,0,0,.32,3.22,12.81,12.81,0,0,0,.57,2.23,8.2,8.2,0,0,0,1.82,2.75,8.05,8.05,0,0,0,2.75,1.82,12.81,12.81,0,0,0,2.23.57,25.49,25.49,0,0,0,3.22.32c1.26,0,2.27.08,3,.09h3.29l2.39,0,2.39,0h3.3c0.75,0,1.76,0,3-.09A25.12,25.12,0,0,0,45.4,53a12.71,12.71,0,0,0,2.24-.57,8.21,8.21,0,0,0,4.56-4.57,12.74,12.74,0,0,0,.58-2.23,23.93,23.93,0,0,0,.31-3.22c0-1.26.09-2.27,0.1-3s0-1.84,0-3.29,0-2.25,0-2.39S53.18,32.78,53.19,31.34Z"/><path class="cls-4" d="M47.52,19.69a2.7,2.7,0,1,1-1.92-.8A2.62,2.62,0,0,1,47.52,19.69Z"/><path class="cls-4" d="M41.73,25.48a11.23,11.23,0,0,1,3.4,8.25A11.61,11.61,0,0,1,33.48,45.37,11.61,11.61,0,0,1,21.84,33.73,11.61,11.61,0,0,1,33.48,22.08,11.23,11.23,0,0,1,41.73,25.48ZM41,33.73a7.58,7.58,0,0,0-7.57-7.57,7.56,7.56,0,0,0-7.56,7.57,7.55,7.55,0,0,0,7.56,7.56A7.56,7.56,0,0,0,41,33.73Z"/><path class="cls-5" d="M57.48,33.73q0,7.16-.15,9.9Q57,50.14,53.45,53.7T43.39,57.57c-1.83.1-5.14,0.16-9.91,0.16s-8.07-.06-9.9-0.16q-6.51-.32-10.07-3.87T9.64,43.63c-0.1-1.83-.16-5.13-0.16-9.9s0.06-8.08.16-9.91q0.31-6.5,3.87-10.06T23.58,9.88q2.74-.15,9.9-0.15c4.77,0,8.08,0,9.91.15q6.5,0.31,10.06,3.88t3.88,10.06C57.43,25.65,57.48,29,57.48,33.73Z"/><path class="cls-6" d="M33.48,14l-2.39,0H27.8c-0.75,0-1.76.05-3,.1a23.93,23.93,0,0,0-3.22.31,12.74,12.74,0,0,0-2.23.58,8,8,0,0,0-2.75,1.81,8.2,8.2,0,0,0-1.82,2.75,12.71,12.71,0,0,0-.57,2.24A25.12,25.12,0,0,0,13.87,25c-0.05,1.26-.08,2.27-0.09,3s0,1.85,0,3.3,0,2.24,0,2.39,0,0.94,0,2.39,0,2.54,0,3.29,0,1.76.09,3a25.49,25.49,0,0,0,.32,3.22,12.81,12.81,0,0,0,.57,2.23,8.2,8.2,0,0,0,1.82,2.75,8.05,8.05,0,0,0,2.75,1.82,12.81,12.81,0,0,0,2.23.57,25.49,25.49,0,0,0,3.22.32c1.26,0,2.27.08,3,.09h3.29l2.39,0,2.39,0h3.3c0.75,0,1.76,0,3-.09A25.12,25.12,0,0,0,45.4,53a12.71,12.71,0,0,0,2.24-.57,8.21,8.21,0,0,0,4.56-4.57,12.74,12.74,0,0,0,.58-2.23,23.93,23.93,0,0,0,.31-3.22c0-1.26.09-2.27,0.1-3s0-1.84,0-3.29,0-2.25,0-2.39,0-.95,0-2.39,0-2.55,0-3.3-0.05-1.76-.1-3a23.6,23.6,0,0,0-.31-3.21,12.64,12.64,0,0,0-.58-2.24A8.15,8.15,0,0,0,47.64,15a12.64,12.64,0,0,0-2.24-.58,23.6,23.6,0,0,0-3.21-.31c-1.26,0-2.27-.09-3-0.1h-3.3Z"/><path class="cls-6" d="M48.32,21.61a2.73,2.73,0,1,1-.8-1.92A2.62,2.62,0,0,1,48.32,21.61Z"/><path class="cls-5" d="M45.13,33.73A11.61,11.61,0,0,1,33.48,45.37,11.61,11.61,0,0,1,21.84,33.73,11.61,11.61,0,0,1,33.48,22.08,11.61,11.61,0,0,1,45.13,33.73Z"/><path class="cls-2" d="M41,33.73a7.58,7.58,0,0,0-7.57-7.57,7.56,7.56,0,0,0-7.56,7.57,7.55,7.55,0,0,0,7.56,7.56A7.56,7.56,0,0,0,41,33.73Z"/></svg>